<?xml version="1.0" standalone="no"?>
<!DOCTYPE svg PUBLIC "-//W3C//DTD SVG 20010904//EN"
 "http://www.w3.org/TR/2001/REC-SVG-20010904/DTD/svg10.dtd">
<svg version="1.0" xmlns="http://www.w3.org/2000/svg"
 width="1146.000000pt" height="793.000000pt" viewBox="0 0 1146.000000 793.000000"
 preserveAspectRatio="xMidYMid meet">
<metadata>
Created by potrace 1.15, written by Peter Selinger 2001-2017
</metadata>
<g transform="translate(0.000000,793.000000) scale(0.100000,-0.100000)"
fill="#000000" stroke="none">
<path d="M5740 6830 c112 -6 103 -7 -80 -6 -113 1 -187 -2 -165 -5 35 -5 36
-6 10 -8 -16 -1 -39 -6 -50 -11 -19 -8 -19 -9 3 -9 12 -1 22 -6 22 -12 0 -6
-9 -9 -20 -6 -12 3 -33 -1 -48 -10 -22 -12 -23 -14 -5 -10 15 3 23 -1 26 -12
4 -14 5 -14 6 1 1 12 9 17 29 16 15 -1 33 0 41 3 9 2 15 -4 16 -16 4 -50 5
-58 11 -52 8 7 34 -17 34 -32 0 -6 12 -11 28 -12 15 0 21 -3 12 -6 -8 -3 -19
-12 -23 -19 -5 -9 -27 -14 -55 -15 -26 0 -65 -4 -87 -9 -26 -5 -10 -6 45 -2
138 11 467 7 580 -7 394 -48 798 -194 1123 -407 53 -35 97 -61 97 -59 0 11
-201 137 -326 205 -71 38 -122 70 -114 70 9 1 5 7 -10 15 -33 19 -21 19 23 0
47 -19 48 -19 43 8 -2 13 -9 21 -19 19 -28 -5 -29 18 -1 28 20 8 29 8 35 -1 4
-7 10 2 14 22 7 29 9 31 20 16 7 -9 24 -17 39 -17 29 0 33 -11 11 -30 -10 -8
-13 -21 -9 -33 4 -12 1 -23 -7 -28 -10 -6 -8 -9 9 -9 15 0 21 4 16 11 -4 7 -1
10 7 7 8 -3 13 -13 11 -22 -3 -14 0 -15 17 -5 19 12 18 13 -7 27 -37 18 -45
28 -37 42 5 8 11 7 23 -2 12 -10 14 -10 8 0 -9 15 -4 15 29 0 17 -8 24 -17 20
-29 -3 -9 -1 -20 5 -24 6 -4 10 5 10 21 0 26 1 26 19 10 11 -10 29 -16 43 -13
21 4 21 4 -4 6 -16 0 -32 9 -38 21 -6 11 -15 18 -21 15 -15 -10 -67 17 -62 32
3 7 -1 13 -8 13 -7 0 -10 2 -7 5 9 10 38 -7 31 -18 -3 -6 -1 -7 6 -3 17 11 9
18 -68 55 -38 19 -68 37 -66 41 2 4 -7 12 -21 19 -35 16 -44 13 -14 -4 30 -17
21 -20 -14 -4 -14 7 -23 16 -20 20 3 5 -1 10 -8 10 -7 1 -20 3 -28 4 -8 1 -24
3 -35 4 -17 1 -18 3 -5 11 13 8 12 10 -5 11 -11 1 -28 1 -38 1 -10 -1 -16 2
-12 7 7 13 -28 23 -50 15 -13 -6 -16 -4 -10 5 6 10 2 11 -15 6 -15 -5 -20 -4
-16 4 8 13 -38 26 -55 15 -8 -4 -9 -3 -5 5 6 9 0 10 -21 6 -22 -5 -25 -4 -13
5 12 9 9 10 -13 5 -21 -4 -27 -3 -21 6 5 9 2 10 -9 6 -9 -3 -19 -2 -22 4 -4 5
-17 7 -31 5 -16 -3 -22 -1 -18 6 5 7 -2 9 -19 6 -15 -3 -24 -2 -22 2 9 14
-224 52 -327 54 -31 1 -54 5 -51 9 3 4 -13 8 -34 7 -21 0 -110 1 -198 3 -153
4 -154 4 -35 -3z"/>
<path d="M5790 6523 c-41 -2 -77 -8 -80 -13 -3 -5 -25 -11 -50 -14 -68 -7 -69
-9 -10 -16 l55 -6 -45 -9 -45 -10 40 -6 c37 -6 36 -6 -20 -8 -180 -7 -126 -16
100 -17 191 0 289 -5 369 -17 235 -36 502 -117 698 -212 51 -24 94 -42 96 -40
2 2 -37 23 -87 47 -49 23 -86 45 -80 49 5 3 -22 20 -60 37 -39 18 -71 34 -71
36 0 6 99 -23 122 -35 9 -5 23 -9 30 -8 7 0 -14 14 -47 30 -52 26 -51 29 5 12
13 -4 13 -4 0 6 -13 9 -13 11 0 11 13 0 13 1 0 10 -8 5 -19 10 -25 10 -5 0 -3
-4 5 -10 10 -6 4 -8 -22 -7 -20 1 -34 5 -32 9 5 8 -140 55 -273 89 -53 13 -87
27 -80 31 7 4 -6 5 -28 3 -31 -4 -36 -3 -20 5 15 7 8 8 -30 5 -37 -4 -45 -3
-30 5 15 7 5 8 -35 5 -42 -4 -50 -3 -35 5 17 9 15 10 -12 6 -18 -3 -35 -1 -38
4 -3 4 -49 7 -103 5 -68 -3 -84 -1 -52 4 l45 8 -40 0 c-22 -1 -74 -3 -115 -4z"/>
<path d="M5705 6371 l50 -7 -55 -7 c-30 -3 -95 -10 -145 -14 -68 -6 -28 -8
165 -8 285 0 385 -11 614 -69 222 -56 433 -144 634 -264 56 -34 100 -58 98
-53 -9 14 -184 116 -291 169 -102 50 -243 106 -349 139 -32 9 -53 19 -47 21 8
3 122 -31 281 -84 8 -3 7 0 -3 6 -58 37 -434 142 -559 156 -42 5 -55 10 -40
13 12 3 -73 7 -190 7 -117 1 -190 -1 -163 -5z"/>
<path d="M3613 5564 c-120 -152 -281 -439 -361 -644 -46 -118 -112 -332 -111
-358 0 -9 13 26 29 78 95 322 284 697 458 911 13 16 22 34 20 40 -2 7 -18 -6
-35 -27z"/>
<path d="M3753 5453 c-138 -178 -253 -384 -336 -599 -51 -132 -92 -262 -85
-270 3 -2 13 24 23 58 43 155 162 418 264 583 24 39 51 82 60 98 9 15 21 25
28 22 7 -2 15 1 19 7 4 7 3 8 -4 4 -19 -12 -14 5 13 40 14 18 25 40 25 49 0 9
4 14 9 10 5 -3 12 -1 16 5 4 6 10 8 15 5 4 -3 14 3 21 13 13 15 12 16 -3 3
-16 -12 -18 -11 -18 8 0 12 5 19 10 16 6 -3 10 1 10 9 0 9 -2 16 -4 16 -2 0
-30 -35 -63 -77z"/>
<path d="M5368 5323 c6 -2 10 -8 7 -13 -3 -4 2 -13 10 -20 13 -11 15 -145 15
-1062 0 -999 -1 -1050 -17 -1037 -15 11 -14 10 1 -9 11 -12 21 -22 22 -22 2 0
4 478 4 1063 0 948 -2 1065 -15 1085 -9 12 -22 22 -28 21 -9 0 -8 -2 1 -6z"/>
<path d="M5995 4015 c0 -710 1 -1001 2 -648 2 353 2 933 0 1290 -1 356 -2 68
-2 -642z"/>
<path d="M3880 4422 c0 -7 21 -65 46 -130 193 -492 548 -949 1049 -1353 101
-81 240 -179 254 -179 6 0 11 -4 11 -8 0 -5 12 -15 28 -22 15 -8 35 -21 45
-29 14 -12 17 -12 18 0 0 8 4 4 9 -8 5 -13 15 -20 22 -18 7 3 21 -7 30 -22
l17 -28 1 28 c0 15 -4 27 -8 27 -4 0 -49 27 -101 60 -51 33 -97 57 -103 54 -7
-4 -8 -2 -4 4 7 11 -6 17 -27 13 -5 -1 -6 3 -3 8 3 4 -12 20 -34 35 -22 14
-40 24 -40 22 0 -2 -13 9 -30 25 -16 17 -34 27 -40 24 -6 -4 -9 -1 -8 7 2 7
-3 12 -9 10 -7 -1 -13 2 -13 7 0 5 -24 28 -52 50 -29 22 -65 53 -80 68 -16 16
-28 26 -28 22 0 -11 -362 359 -423 433 -198 240 -370 525 -476 788 -28 69 -51
119 -51 112z"/>
<path d="M4390 4368 c0 -18 46 -132 98 -240 137 -289 319 -547 570 -809 177
-185 384 -362 402 -343 5 5 -45 53 -118 114 -70 57 -127 102 -127 100 0 -12
-293 306 -361 391 -165 207 -334 486 -419 694 -35 84 -45 105 -45 93z"/>
<path d="M8628 3900 c-4 -132 -13 -272 -22 -320 -8 -47 -17 -98 -19 -115 -9
-60 -29 -119 -44 -131 -11 -7 -14 -20 -11 -38 3 -14 1 -29 -4 -32 -5 -3 -6
-15 -2 -26 3 -12 2 -18 -3 -15 -9 6 -34 -81 -48 -163 -9 -55 -71 -214 -135
-348 -66 -137 -171 -311 -261 -432 -32 -44 -56 -80 -53 -80 9 0 44 41 44 52 0
5 4 7 9 4 5 -3 12 6 15 19 4 14 11 23 16 20 5 -3 12 5 16 17 3 12 14 29 24 37
23 22 118 176 175 286 215 417 323 885 313 1355 -3 136 -3 131 -10 -90z"/>
<path d="M8172 3620 c-29 -229 -141 -582 -246 -775 -56 -102 -78 -139 -98
-167 -11 -16 -16 -33 -12 -39 4 -8 3 -9 -4 -5 -6 3 -16 -3 -22 -14 -6 -11 -7
-20 -3 -20 4 0 -2 -7 -13 -15 -10 -8 -15 -15 -10 -15 4 0 -2 -8 -15 -18 -13
-12 -18 -21 -12 -25 6 -4 18 4 27 18 9 14 13 25 9 25 -5 0 0 5 10 11 9 6 15
14 12 20 -4 5 -2 9 4 9 9 0 81 102 81 115 0 3 14 27 31 55 79 129 189 421 233
620 28 127 50 279 44 307 -2 10 -9 -29 -16 -87z"/>
<path d="M8310 3595 c-1 -26 -3 -27 -10 -10 -6 13 -7 3 -4 -30 4 -37 3 -46 -5
-35 -8 11 -9 5 -4 -24 3 -23 2 -37 -3 -34 -5 4 -10 -13 -10 -35 -1 -23 -25
-115 -53 -203 -83 -264 -161 -435 -282 -626 -37 -59 -64 -110 -60 -112 14 -9
117 158 204 329 99 196 183 453 222 687 9 54 15 103 12 110 -3 7 -6 0 -7 -17z"/>
<path d="M5698 2418 c2 -311 2 -329 -15 -326 -10 2 -17 10 -15 16 1 8 -12 12
-35 12 -21 0 -45 5 -53 11 -12 8 -8 10 15 8 46 -2 59 0 51 9 -8 7 -13 8 -42
11 -8 0 -12 6 -9 11 4 6 -7 10 -26 10 -49 0 -31 7 36 14 65 7 85 16 39 17 -16
0 -38 4 -49 9 -16 7 -12 9 20 11 34 1 30 3 -24 10 -83 11 -96 17 -41 20 l45 2
-35 7 c-31 7 -28 8 25 9 l60 2 -53 18 c-29 9 -50 20 -46 23 3 4 -7 10 -22 13
-55 12 -49 15 21 9 39 -3 67 -3 64 0 -3 3 -18 7 -32 8 -15 1 -27 8 -27 14 0 7
-10 15 -22 17 -17 3 -13 5 12 7 35 2 35 2 -10 11 -25 5 -55 11 -67 14 -17 4
-21 2 -17 -10 4 -8 1 -15 -5 -15 -6 0 -12 -12 -13 -27 0 -17 -4 -7 -8 22 -7
43 -8 39 -7 -32 1 -78 0 -84 -28 -114 -17 -18 -24 -29 -18 -25 9 5 11 2 7 -8
-3 -9 -10 -16 -15 -16 -5 0 -9 -7 -9 -15 0 -8 -5 -15 -11 -15 -5 0 -7 -4 -4
-10 3 -5 3 -10 -2 -10 -4 0 -16 -20 -26 -45 l-19 -45 -108 0 c-95 0 -109 2
-113 18 -3 13 -4 12 -3 -3 1 -20 8 -20 371 -21 204 0 316 3 250 6 -97 5 -108
7 -55 10 l65 3 -50 7 -50 7 52 1 c33 1 53 -2 56 -10 3 -7 6 141 6 329 1 188
-2 344 -6 346 -5 3 -7 -143 -5 -325z"/>
<path d="M4405 1915 c11 -9 67 -42 125 -75 284 -159 599 -259 945 -299 117
-14 398 -15 390 -1 -3 6 -32 11 -63 11 -49 1 -52 3 -22 8 l35 7 -49 7 c-27 4
-90 8 -140 9 -71 1 -82 3 -51 8 27 5 19 6 -28 3 -81 -5 -303 26 -272 38 12 5
2 6 -25 3 -25 -3 -40 -2 -34 3 7 5 -9 9 -40 10 -28 1 -103 18 -166 38 -63 20
-125 37 -137 37 -13 0 -21 4 -18 8 7 11 -22 20 -42 13 -12 -5 -14 -3 -8 7 5 8
4 11 -3 6 -6 -4 -38 5 -71 19 -34 14 -67 22 -77 18 -13 -5 -15 -3 -9 7 5 8 4
11 -3 6 -12 -7 -44 6 -127 53 -120 68 -131 73 -110 56z"/>
<path d="M4275 1840 c18 -29 367 -211 525 -273 324 -127 793 -198 1115 -169
l100 9 -130 3 c-106 2 -121 4 -82 10 69 12 70 20 1 21 l-59 1 70 13 70 12 -66
2 c-36 0 -115 4 -175 8 -87 6 -101 9 -69 14 23 4 2 6 -50 3 -63 -2 -82 -1 -65
6 18 7 9 8 -35 4 -44 -3 -55 -1 -40 6 15 7 7 8 -30 4 -37 -4 -46 -3 -35 5 11
9 4 10 -30 6 -35 -4 -41 -3 -25 5 16 8 11 9 -21 5 -30 -3 -45 -1 -55 11 -8 10
-21 13 -36 9 -47 -12 -270 59 -475 150 -65 29 -118 51 -118 48 0 -7 236 -117
308 -143 34 -12 61 -24 59 -26 -8 -8 -252 88 -352 138 -67 34 -25 2 55 -41 86
-47 88 -52 4 -15 -33 14 -69 27 -81 29 -12 1 -81 36 -153 78 -72 42 -128 72
-125 67z"/>
<path d="M4031 1642 c305 -212 661 -376 989 -456 58 -14 177 -38 265 -53 154
-27 172 -28 480 -27 176 1 343 6 370 12 41 8 31 9 -59 4 -107 -5 -108 -5 -97
15 8 17 7 22 -5 27 -12 5 -14 0 -11 -24 l5 -29 -54 0 c-30 1 -54 5 -54 10 0 4
6 6 14 3 8 -3 17 0 22 7 4 7 3 10 -4 5 -6 -4 -12 4 -14 21 -2 19 -8 27 -19 25
-9 -1 -22 6 -30 15 -7 10 -9 15 -5 11 5 -4 15 -3 23 3 7 6 22 9 33 6 15 -4 22
1 26 19 5 21 8 22 18 10 14 -19 64 -38 71 -27 2 5 -7 12 -23 16 -15 3 -35 16
-44 28 -11 13 -21 18 -25 12 -5 -6 -29 -8 -58 -4 -36 4 -41 6 -17 7 17 1 32 6
32 10 0 5 -64 9 -141 10 -94 1 -147 6 -156 14 -9 7 -48 12 -93 13 -43 0 -73 4
-66 8 6 4 -11 6 -39 3 -35 -4 -45 -2 -35 5 11 7 3 8 -27 6 -26 -2 -40 0 -36 6
3 6 -6 8 -25 5 -18 -3 -29 0 -25 5 3 6 -7 8 -25 5 -19 -3 -29 0 -25 5 4 6 -7
8 -28 4 -21 -4 -29 -4 -21 2 10 6 3 10 -23 15 -20 4 -44 10 -53 13 -15 4 -15
3 -2 -7 13 -9 12 -11 -5 -6 -11 3 -40 10 -65 16 -67 17 -233 78 -333 121 -95
42 -101 44 -92 29 3 -5 -9 -3 -28 5 -18 7 -46 12 -63 10 -16 -1 -46 6 -66 16
-47 24 -60 24 -31 0 12 -10 19 -21 16 -25 -4 -3 0 -6 8 -7 8 0 1 -7 -16 -14
-16 -8 -25 -14 -19 -15 5 0 19 -7 30 -16 18 -14 18 -15 -4 -4 -13 6 -30 9 -37
6 -16 -6 -8 24 9 36 8 5 7 8 -1 8 -6 0 -18 -14 -27 -30 -8 -17 -11 -28 -6 -25
5 3 11 1 15 -5 24 -39 -100 22 -247 121 -49 33 -91 59 -95 59 -3 0 18 -17 48
-38z"/>
</g>
</svg>
